<svg width="16" height="16" viewBox="0 0 16 16" fill="none" xmlns="http://www.w3.org/2000/svg">
<g clip-path="url(#clip0_147_283)">
<path d="M13.3672 1.86332C13.3954 1.86251 13.4237 1.86169 13.4529 1.86084C13.6597 1.86032 13.8326 1.90043 13.9863 2.04639C14.0959 2.17218 14.1288 2.26863 14.1291 2.43189C14.1292 2.46309 14.1293 2.49429 14.1294 2.52644C14.1294 2.56082 14.1294 2.59519 14.1294 2.63061C14.1295 2.66705 14.1295 2.7035 14.1296 2.74105C14.1299 2.84237 14.13 2.9437 14.13 3.04503C14.13 3.15425 14.1303 3.26347 14.1305 3.37268C14.1309 3.61158 14.1311 3.85047 14.1312 4.08937C14.1313 4.2385 14.1314 4.38763 14.1316 4.53676C14.132 4.94957 14.1323 5.36238 14.1324 5.77519C14.1324 5.81483 14.1324 5.81483 14.1324 5.85527C14.1324 5.88176 14.1324 5.90825 14.1324 5.93554C14.1325 5.98922 14.1325 6.0429 14.1325 6.09658C14.1325 6.13652 14.1325 6.13652 14.1325 6.17726C14.1326 6.60877 14.1332 7.04028 14.1339 7.47179C14.1346 7.91469 14.135 8.35758 14.1351 8.80048C14.1351 9.0492 14.1353 9.29792 14.1358 9.54665C14.1363 9.75843 14.1365 9.9702 14.1362 10.182C14.1361 10.29 14.1361 10.3981 14.1366 10.5062C14.137 10.6233 14.1368 10.7404 14.1365 10.8576C14.1368 10.9088 14.1368 10.9088 14.1372 10.9611C14.1359 11.1627 14.12 11.3101 13.9775 11.4645C13.9591 11.4795 13.9408 11.4944 13.9218 11.5098C13.9035 11.5252 13.8851 11.5405 13.8662 11.5563C13.7437 11.6418 13.6048 11.635 13.4612 11.6431C13.4077 11.6464 13.3543 11.6498 13.3009 11.6531C13.2588 11.6558 13.2588 11.6558 13.2159 11.6585C11.5411 11.7665 9.95114 12.1869 8.67848 13.3283C8.62885 13.3717 8.57853 13.414 8.52788 13.4561C8.49804 13.4809 8.46821 13.5057 8.43747 13.5313C8.43318 12.3662 8.42988 11.2011 8.4279 10.036C8.42766 9.89835 8.42742 9.76074 8.42717 9.62314C8.42712 9.59574 8.42707 9.56835 8.42702 9.54012C8.42621 9.09677 8.42473 8.65342 8.42301 8.21007C8.42125 7.75502 8.42021 7.29998 8.41983 6.84494C8.41957 6.56423 8.41876 6.28353 8.41724 6.00283C8.41625 5.81024 8.41595 5.61766 8.41619 5.42508C8.41631 5.31402 8.41613 5.20298 8.41512 5.09193C8.41403 4.97133 8.41441 4.85077 8.41492 4.73017C8.41438 4.69533 8.41383 4.66049 8.41327 4.6246C8.41607 4.38018 8.48104 4.2272 8.62497 4.03129C8.64295 4.00661 8.66092 3.98193 8.67944 3.9565C8.81593 3.7733 8.96937 3.60455 9.12497 3.43754C9.15428 3.4057 9.15428 3.4057 9.18418 3.37321C10.2305 2.27847 11.9053 1.88837 13.3672 1.86332Z" fill="#708499"/>
<path d="M2.61521 1.8653C2.64523 1.86545 2.67524 1.8656 2.70616 1.86576C3.76514 1.88233 4.84889 2.11447 5.78123 2.62506C5.81213 2.64073 5.84302 2.6564 5.87486 2.67255C6.25467 2.86811 6.56784 3.14522 6.87498 3.43756C6.89516 3.45609 6.91534 3.47462 6.93614 3.49372C7.11439 3.66237 7.26771 3.8604 7.40623 4.06256C7.41974 4.08193 7.43325 4.10129 7.44716 4.12125C7.57387 4.32274 7.58432 4.4922 7.58127 4.72643C7.58147 4.78307 7.58147 4.78307 7.58167 4.84085C7.58188 4.94498 7.5814 5.04907 7.58061 5.1532C7.57994 5.26573 7.58017 5.37826 7.58029 5.4908C7.58037 5.68555 7.57988 5.88029 7.579 6.07504C7.57773 6.35661 7.57732 6.63817 7.57713 6.91974C7.57678 7.37661 7.57575 7.83348 7.57427 8.29036C7.57283 8.73405 7.57173 9.17774 7.57106 9.62144C7.57102 9.64881 7.57098 9.67618 7.57094 9.70438C7.57073 9.84169 7.57054 9.97899 7.57034 10.1163C7.56872 11.2546 7.56597 12.393 7.56248 13.5313C7.52811 13.5019 7.49375 13.4725 7.45939 13.4431C7.44025 13.4268 7.42112 13.4104 7.4014 13.3936C7.3482 13.3477 7.29555 13.3012 7.24314 13.2545C6.00964 12.1615 4.42074 11.7585 2.81017 11.667C2.7264 11.6622 2.64267 11.6568 2.55894 11.6514C2.53374 11.6502 2.50855 11.6489 2.48259 11.6476C2.30711 11.636 2.16893 11.6007 2.0355 11.4776C2.02056 11.4592 2.00561 11.4409 1.99021 11.4219C1.97487 11.4036 1.95952 11.3852 1.9437 11.3663C1.87572 11.2688 1.87104 11.1832 1.87087 11.0682C1.87075 11.037 1.87063 11.0058 1.87051 10.9737C1.87054 10.9393 1.87056 10.9049 1.87059 10.8695C1.8705 10.8331 1.8704 10.7966 1.87031 10.7591C1.87008 10.6577 1.87 10.5564 1.86998 10.4551C1.86992 10.3459 1.86968 10.2366 1.86947 10.1274C1.86905 9.88853 1.86886 9.64964 1.86872 9.41074C1.86864 9.26161 1.8685 9.11248 1.86836 8.96334C1.86798 8.55053 1.86766 8.13772 1.86756 7.72491C1.86755 7.69849 1.86754 7.67206 1.86753 7.64483C1.86753 7.61835 1.86752 7.59186 1.86751 7.56456C1.8675 7.51089 1.86749 7.45721 1.86747 7.40353C1.86746 7.3769 1.86746 7.35028 1.86745 7.32284C1.86733 6.89133 1.86678 6.45983 1.86605 6.02832C1.86531 5.58542 1.86492 5.14252 1.86489 4.69962C1.86486 4.4509 1.86468 4.20218 1.86411 3.95346C1.86363 3.74168 1.86347 3.5299 1.86373 3.31812C1.86385 3.21006 1.86382 3.10201 1.86338 2.99395C1.86299 2.8768 1.86317 2.75967 1.86349 2.64253C1.86324 2.60837 1.86299 2.5742 1.86273 2.539C1.86386 2.36743 1.86943 2.24063 1.96873 2.09381C2.17667 1.89491 2.33827 1.8636 2.61521 1.8653Z" fill="#708499"/>
<path d="M15 3.84379C15.0803 3.84274 15.1606 3.84196 15.2408 3.84135C15.2748 3.84086 15.2748 3.84086 15.3094 3.84036C15.5257 3.83913 15.656 3.87694 15.8379 3.99418C15.997 4.15326 16.011 4.30578 16.0125 4.5212C16.0122 4.57545 16.0122 4.57545 16.0119 4.6308C16.0121 4.66949 16.0122 4.70819 16.0123 4.74806C16.0127 4.85523 16.0125 4.9624 16.0123 5.06957C16.012 5.18525 16.0124 5.30092 16.0126 5.41659C16.013 5.6431 16.013 5.86961 16.0127 6.09612C16.0125 6.28021 16.0124 6.46429 16.0125 6.64838C16.0126 6.67458 16.0126 6.70078 16.0126 6.72777C16.0126 6.781 16.0127 6.83422 16.0127 6.88745C16.0129 7.38654 16.0126 7.88563 16.0121 8.38472C16.0117 8.81297 16.0118 9.24121 16.0122 9.66946C16.0127 10.1668 16.0129 10.6641 16.0126 11.1614C16.0126 11.2144 16.0126 11.2674 16.0125 11.3205C16.0125 11.3465 16.0125 11.3726 16.0125 11.3995C16.0124 11.5834 16.0126 11.7673 16.0128 11.9511C16.013 12.1752 16.013 12.3993 16.0125 12.6233C16.0122 12.7377 16.0121 12.852 16.0124 12.9663C16.0128 13.0902 16.0124 13.2141 16.0119 13.338C16.0121 13.3742 16.0123 13.4104 16.0125 13.4476C16.0112 13.6231 16.009 13.7567 15.9063 13.9063C15.7355 14.0696 15.6103 14.1341 15.3736 14.1321C15.1889 14.118 15.0078 14.0758 14.8265 14.0387C14.4011 13.952 13.9763 13.8807 13.5449 13.8321C13.5231 13.8296 13.5013 13.8271 13.4789 13.8246C13.3402 13.8091 13.2014 13.7945 13.0625 13.7813C13.0208 13.7773 13.0208 13.7773 12.9783 13.7732C12.7537 13.7528 12.5311 13.7446 12.3057 13.7437C12.2704 13.7435 12.2351 13.7433 12.1988 13.743C12.0856 13.7425 11.9725 13.7423 11.8594 13.7422C11.8208 13.7422 11.7822 13.7422 11.7424 13.7422C10.9939 13.7428 10.2866 13.7898 9.55379 13.952C9.50825 13.962 9.50825 13.962 9.46179 13.9722C9.42179 13.9814 9.42179 13.9814 9.38097 13.9907C9.3125 14 9.3125 14 9.21875 13.9688C9.7433 13.4159 10.4425 13.082 11.1563 12.8438C11.1915 12.8317 11.2267 12.8195 11.2629 12.8071C11.9265 12.5895 12.6311 12.5097 13.3262 12.4825C13.7927 12.4634 14.1991 12.3829 14.5625 12.0625C14.877 11.7103 14.9732 11.3151 14.9737 10.8524C14.9738 10.8223 14.974 10.7923 14.9742 10.7613C14.9746 10.6609 14.9749 10.5606 14.9752 10.4602C14.9755 10.3881 14.9758 10.316 14.9761 10.244C14.9769 10.0485 14.9776 9.853 14.9782 9.65751C14.9789 9.45314 14.9798 9.24878 14.9806 9.04442C14.982 8.70146 14.9833 8.35851 14.9845 8.01556C14.9857 7.66238 14.987 7.3092 14.9884 6.95602C14.9885 6.92334 14.9885 6.92334 14.9886 6.89C14.9891 6.78071 14.9895 6.67141 14.9899 6.56212C14.9935 5.65601 14.9968 4.7499 15 3.84379Z" fill="#708499"/>
<path d="M0.757802 3.84158C0.781086 3.84172 0.80437 3.84186 0.828359 3.842C0.88557 3.84237 0.942781 3.84293 0.99999 3.84353C1.00009 3.88093 1.0002 3.91833 1.0003 3.95686C1.00277 4.84533 1.00556 5.73381 1.00874 6.62228C1.00913 6.73172 1.00952 6.84116 1.00991 6.9506C1.00999 6.97239 1.01006 6.99417 1.01014 7.01662C1.01138 7.36904 1.01241 7.72145 1.01335 8.07387C1.01432 8.43569 1.01553 8.79751 1.01695 9.15932C1.01774 9.36246 1.01842 9.5656 1.01884 9.76874C1.01925 9.96004 1.01994 10.1513 1.02085 10.3426C1.02113 10.4127 1.02131 10.4829 1.02137 10.553C1.02148 10.6489 1.02196 10.7449 1.02254 10.8408C1.02248 10.8684 1.02242 10.8959 1.02235 10.9243C1.02603 11.3351 1.13396 11.7109 1.41796 12.0174C1.44503 12.0425 1.4721 12.0676 1.49999 12.0935C1.52706 12.1193 1.55413 12.1451 1.58202 12.1717C1.93117 12.4547 2.36938 12.4735 2.79879 12.4928C4.15681 12.556 5.62664 12.8963 6.65624 13.8435C6.69887 13.8948 6.7408 13.9467 6.78124 13.9998C6.59654 13.9692 6.41191 13.9384 6.22753 13.906C6.19772 13.9009 6.16791 13.8957 6.1372 13.8904C6.07792 13.8802 6.01868 13.8697 5.95946 13.8592C5.37168 13.7586 4.78875 13.7382 4.19335 13.74C4.15545 13.7401 4.11754 13.7401 4.07849 13.7402C3.4945 13.7417 2.92252 13.7606 2.34374 13.8435C2.32329 13.8464 2.30285 13.8493 2.28178 13.8522C1.82382 13.9166 1.36601 13.9859 0.914762 14.0883C0.677516 14.1402 0.460487 14.1614 0.24352 14.0397C0.125257 13.9554 0.0463363 13.8576 -1.00732e-05 13.7185C-0.00298752 13.6657 -0.00415696 13.6127 -0.00429177 13.5598C-0.00445035 13.5268 -0.00460892 13.4938 -0.00477231 13.4598C-0.00478786 13.4234 -0.00480343 13.387 -0.00481945 13.3495C-0.00502487 13.2916 -0.00502485 13.2916 -0.00523442 13.2326C-0.00558039 13.1253 -0.00578491 13.0181 -0.00592762 12.9108C-0.00611372 12.7952 -0.00647651 12.6796 -0.00681168 12.564C-0.0075781 12.2847 -0.00803513 12.0054 -0.00843853 11.7261C-0.00855452 11.6472 -0.0086787 11.5683 -0.00880581 11.4894C-0.00959443 10.9996 -0.0102836 10.5099 -0.0106723 10.0201C-0.0107639 9.90661 -0.0108564 9.79316 -0.0109506 9.6797C-0.0109739 9.6515 -0.0109972 9.62331 -0.0110213 9.59425C-0.0114167 9.13742 -0.012455 8.6806 -0.0137569 8.22377C-0.0150825 7.75481 -0.015819 7.28586 -0.0159823 6.81689C-0.016089 6.55357 -0.0164564 6.29025 -0.0174856 6.02692C-0.0183606 5.80266 -0.0187043 5.57841 -0.0183545 5.35415C-0.0181924 5.23975 -0.0182825 5.12537 -0.0190565 5.01097C-0.0198891 4.88687 -0.0195075 4.76279 -0.0190101 4.63868C-0.0196608 4.58461 -0.0196608 4.58461 -0.0203247 4.52944C-0.0182201 4.31652 0.00895867 4.16057 0.15624 3.99978C0.346411 3.85371 0.52583 3.83891 0.757802 3.84158Z" fill="#708499"/>
</g>
<defs>
<clipPath id="clip0_147_283">
<rect width="16" height="16" fill="white"/>
</clipPath>
</defs>
</svg>
