<svg width="14" height="14" viewBox="0 0 14 14" fill="none" xmlns="http://www.w3.org/2000/svg">
<g clip-path="url(#clip0_97_15)">
<path d="M6.16025 7.45989C6.18242 7.45971 6.20459 7.45953 6.22743 7.45935C6.30052 7.45881 6.3736 7.45849 6.44669 7.45822C6.47187 7.4581 6.49705 7.45799 6.52299 7.45788C6.65653 7.45731 6.79007 7.45692 6.9236 7.45666C7.06021 7.45636 7.19679 7.45542 7.33339 7.45433C7.43953 7.45361 7.54566 7.45339 7.6518 7.45329C7.70207 7.45316 7.75234 7.45284 7.80261 7.45233C8.52648 7.4454 9.22269 7.63461 9.75772 8.14413C9.7959 8.18159 9.83349 8.21964 9.87107 8.2577C9.89328 8.27994 9.91548 8.30218 9.93836 8.3251C10.3773 8.78731 10.6152 9.40219 10.6125 10.0366C10.6125 10.0606 10.6125 10.0846 10.6125 10.1094C10.6124 10.1883 10.6122 10.2671 10.612 10.346C10.612 10.4009 10.6119 10.4558 10.6119 10.5107C10.6118 10.6547 10.6115 10.7988 10.6112 10.9429C10.6109 11.0901 10.6108 11.2373 10.6107 11.3844C10.6104 11.6729 10.6099 11.9614 10.6094 12.2499C10.5579 12.2761 10.5064 12.3022 10.4549 12.3282C10.4262 12.3428 10.3975 12.3573 10.368 12.3723C10.2393 12.4341 10.1075 12.4808 9.9719 12.525C9.92969 12.5389 9.92969 12.5389 9.88663 12.553C8.05796 13.1371 5.34848 13.1605 3.58201 12.2772C3.58073 11.9853 3.57976 11.6934 3.57917 11.4015C3.57889 11.2659 3.5785 11.1303 3.57788 10.9947C3.57728 10.8635 3.57696 10.7323 3.57682 10.6011C3.57672 10.5514 3.57652 10.5017 3.57622 10.452C3.57188 9.69685 3.69217 8.97577 4.21091 8.39442C4.22875 8.37239 4.24658 8.35036 4.26496 8.32766C4.72472 7.7775 5.44795 7.46243 6.16025 7.45989Z" fill="#708499"/>
<path d="M2.98625 5.3274C3.02841 5.32731 3.07057 5.32722 3.11272 5.32712C3.20046 5.32696 3.2882 5.32691 3.37594 5.32692C3.4882 5.32692 3.60046 5.32655 3.71272 5.32608C3.79951 5.32578 3.8863 5.32572 3.9731 5.32574C4.0145 5.3257 4.05591 5.32558 4.09731 5.32537C4.15508 5.3251 4.21283 5.32518 4.2706 5.32535C4.30339 5.32531 4.33618 5.32527 4.36997 5.32523C4.45589 5.3319 4.51638 5.34992 4.59377 5.38668C4.59683 5.42548 4.59683 5.42548 4.59996 5.46508C4.65552 6.06016 4.87865 6.59506 5.30225 7.02025C5.35939 7.08199 5.35939 7.08199 5.35939 7.13668C5.32633 7.14993 5.29327 7.16318 5.2592 7.17684C4.85119 7.34281 4.48662 7.5219 4.15627 7.82027C4.13325 7.84103 4.11023 7.86179 4.08652 7.88318C3.37117 8.56293 3.15964 9.45404 3.12917 10.4111C3.1274 10.4636 3.1274 10.4636 3.12559 10.5173C3.12272 10.6026 3.11993 10.688 3.11721 10.7734C2.17407 10.6988 1.25487 10.5488 0.347156 10.2758C0.313531 10.2657 0.279907 10.2557 0.245264 10.2453C0.163493 10.2209 0.0817454 10.1964 1.81291e-05 10.1718C-0.00189176 9.84736 -0.0033447 9.52288 -0.00423201 9.1984C-0.00465811 9.04769 -0.00523519 8.89699 -0.00617026 8.74628C-0.00706873 8.60054 -0.00755353 8.45481 -0.00776472 8.30907C-0.00791501 8.25377 -0.00820855 8.19847 -0.00865509 8.14318C-0.0145632 7.38046 0.17412 6.69862 0.719714 6.14258C0.743894 6.11872 0.768074 6.09486 0.792987 6.07027C0.813219 6.05007 0.833451 6.02988 0.854297 6.00907C1.44999 5.4472 2.20371 5.32778 2.98625 5.3274Z" fill="#708499"/>
<path d="M9.625 5.33216C9.85584 5.33088 10.0867 5.32991 10.3175 5.32932C10.4248 5.32904 10.532 5.32866 10.6392 5.32803C10.7431 5.32743 10.847 5.32711 10.9509 5.32697C10.9901 5.32687 11.0294 5.32668 11.0686 5.32638C11.2819 5.32481 11.4916 5.33198 11.7036 5.3562C11.7315 5.35935 11.7315 5.35935 11.7599 5.36256C12.3989 5.44286 13.0146 5.79851 13.4258 6.28919C13.782 6.75142 14.0056 7.29416 14.0031 7.88169C14.0031 7.90626 14.0031 7.93082 14.0031 7.95613C14.0031 8.03676 14.0029 8.11739 14.0027 8.19802C14.0026 8.25415 14.0026 8.31027 14.0026 8.3664C14.0024 8.51371 14.0022 8.66102 14.0019 8.80833C14.0016 8.95881 14.0015 9.1093 14.0013 9.25978C14.001 9.55474 14.0006 9.8497 14 10.1447C13.9303 10.1755 13.8605 10.2062 13.7908 10.2369C13.7712 10.2455 13.7516 10.2542 13.7314 10.2631C13.5813 10.3291 13.4304 10.3867 13.2737 10.4352C13.236 10.4469 13.236 10.4469 13.1976 10.4589C12.5116 10.6672 11.7912 10.7776 11.0742 10.7736C11.074 10.7466 11.0737 10.7197 11.0734 10.6919C11.0734 9.95893 11.0734 9.95893 10.9375 9.24232C10.9318 9.22335 10.9261 9.20439 10.9203 9.18485C10.7941 8.78144 10.5867 8.41173 10.3086 8.09388C10.2925 8.07386 10.2764 8.05384 10.2598 8.03321C9.89684 7.59552 9.38456 7.32926 8.85938 7.13685C8.9012 7.04132 8.95853 6.9725 9.02686 6.89417C9.37261 6.47615 9.55391 5.9863 9.61232 5.44888C9.61471 5.42695 9.61711 5.40502 9.61957 5.38243C9.62136 5.36584 9.62316 5.34925 9.625 5.33216Z" fill="#708499"/>
<path d="M8.30737 3.58058C8.37543 3.63339 8.43994 3.68834 8.5039 3.74603C8.52262 3.76221 8.54133 3.77839 8.56062 3.79506C8.92499 4.13079 9.1478 4.62643 9.16934 5.11941C9.17917 5.70225 9.05042 6.23488 8.65685 6.68303C8.23394 7.1053 7.71937 7.34486 7.11791 7.36053C6.51427 7.3503 6.00272 7.128 5.57812 6.69915C5.20048 6.29551 5.01388 5.75796 5.02441 5.2086C5.06269 4.6745 5.2654 4.14646 5.66015 3.77337C6.41072 3.12769 7.47863 3.00622 8.30737 3.58058Z" fill="#708499"/>
<path d="M4.72042 1.47917C5.19083 1.8572 5.48957 2.32091 5.56637 2.92881C5.59655 3.23314 5.59655 3.23314 5.49609 3.36322C5.45572 3.40047 5.414 3.43629 5.37133 3.47088C5.01374 3.78683 4.77193 4.23131 4.67577 4.69622C4.62874 4.91379 4.62874 4.91379 4.52709 4.98162C4.46984 5.00726 4.46984 5.00726 4.40234 5.03119C4.37442 5.04303 4.3465 5.05487 4.31774 5.06707C3.78677 5.28542 3.24224 5.28192 2.70585 5.08224C2.20174 4.86751 1.82535 4.50213 1.59693 4.00676C1.38348 3.47343 1.3576 2.88569 1.58593 2.3515C1.81974 1.85235 2.18815 1.43969 2.70912 1.23549C3.38404 0.994634 4.13262 1.0388 4.72042 1.47917Z" fill="#708499"/>
<path d="M11.855 1.58752C12.2874 1.95614 12.5235 2.45843 12.5747 3.02146C12.5982 3.58529 12.4309 4.12524 12.05 4.54588C11.6789 4.93992 11.2035 5.20583 10.6532 5.22915C10.3124 5.23665 9.91814 5.22951 9.625 5.03123C9.59803 4.96152 9.5829 4.90695 9.57031 4.8347C9.56179 4.79503 9.55306 4.7554 9.54414 4.71581C9.53961 4.69554 9.53508 4.67527 9.53041 4.65438C9.37541 4.01828 8.95735 3.50909 8.42188 3.14451C8.47815 2.51951 8.68015 1.97469 9.17297 1.55697C9.99426 0.927063 11.0504 0.939193 11.855 1.58752Z" fill="#708499"/>
</g>
<defs>
<clipPath id="clip0_97_15">
<rect width="14" height="14" fill="#708499"/>
</clipPath>
</defs>
</svg>
