<svg width="21" height="21" viewBox="0 0 21 21" fill="none" xmlns="http://www.w3.org/2000/svg">
<path d="M0.779316 1.68929C0.779316 1.38547 0.779316 0.777845 1.85698 0.777832C3.24256 0.777815 18.6378 8.67714 19.7155 9.5886C20.5776 10.3178 20.1759 11.1077 19.714 11.4115C18.6367 12.3227 3.09533 20.2175 1.8555 20.2223C0.777832 20.2223 0.777832 19.6146 0.777832 19.3108L1.85659 12.6268C1.97942 11.8976 2.31858 11.7153 2.47281 11.7153L11.71 10.8039C11.8126 10.8039 12.0179 10.7431 12.0179 10.5001C12.0179 10.257 11.8126 10.1962 11.71 10.1962L2.47281 9.28478C2.31858 9.28478 1.97942 9.10248 1.85659 8.37332C1.49599 6.1701 0.779316 1.99311 0.779316 1.68929Z" fill="#708499"/>
</svg>
