<svg width="14" height="14" viewBox="0 0 14 14" fill="none" xmlns="http://www.w3.org/2000/svg">
<path d="M8.12108 0.656415C8.14504 0.660817 8.169 0.665218 8.19369 0.669753C9.6915 0.953764 11.1321 1.78155 12.0586 3.00798C12.0716 3.02497 12.0846 3.04197 12.098 3.05947C12.9596 4.18965 13.4415 5.56448 13.4343 6.9882C13.4343 7.00952 13.4342 7.03083 13.4341 7.05279C13.4278 8.49288 12.9449 9.90079 12.0312 11.0197C12.009 11.0475 11.9867 11.0754 11.9637 11.1041C11.647 11.4939 11.2881 11.8443 10.8828 12.1408C10.852 12.1639 10.8211 12.1871 10.7903 12.2102C9.95544 12.8295 8.98038 13.2088 7.95702 13.3713C7.93653 13.3748 7.91604 13.3783 7.89492 13.3819C7.24481 13.4908 6.52482 13.4602 5.8789 13.3439C5.85443 13.3395 5.82996 13.3351 5.80476 13.3306C4.56881 13.0978 3.43562 12.5165 2.53569 11.6401C2.49086 11.5964 2.4456 11.5533 2.40026 11.5102C2.21237 11.3294 2.04879 11.1356 1.89252 10.9271C1.86324 10.8881 1.83341 10.8496 1.8035 10.8111C0.983762 9.73107 0.558868 8.36183 0.565663 7.01213C0.565721 6.99081 0.56578 6.9695 0.565841 6.94754C0.57133 5.70158 0.927892 4.44858 1.64061 3.41813C1.65831 3.39249 1.65831 3.39249 1.67636 3.36633C2.06287 2.81203 2.52465 2.29354 3.07125 1.8932C3.1171 1.8596 3.16243 1.82538 3.20775 1.79107C4.03091 1.17683 5.006 0.795996 6.01562 0.629072C6.03539 0.62556 6.05516 0.622048 6.07554 0.61843C6.72999 0.505729 7.47102 0.533506 8.12108 0.656415ZM6.56249 3.11735C6.45966 3.26604 6.42248 3.39031 6.42193 3.56892C6.42178 3.59958 6.42162 3.63025 6.42146 3.66184C6.42143 3.69536 6.4214 3.72889 6.42137 3.76343C6.42123 3.79883 6.42109 3.83423 6.42095 3.87071C6.4206 3.96777 6.42042 4.06484 6.4203 4.1619C6.42022 4.2226 6.42011 4.2833 6.41998 4.344C6.41961 4.53409 6.41935 4.72418 6.41924 4.91427C6.41912 5.13338 6.41864 5.35249 6.41785 5.5716C6.41725 5.74117 6.41698 5.91074 6.41694 6.08031C6.41691 6.18149 6.41675 6.28266 6.41626 6.38384C6.41573 6.49681 6.41585 6.60978 6.41603 6.72275C6.41577 6.75605 6.41552 6.78936 6.41526 6.82367C6.41644 7.06385 6.44039 7.24702 6.61284 7.42785C6.63471 7.45099 6.65658 7.47412 6.67912 7.49796C6.7038 7.52318 6.72847 7.5484 6.7539 7.57438C6.77397 7.59506 6.77397 7.59506 6.79444 7.61614C6.90344 7.72837 7.01365 7.83936 7.12411 7.95015C7.14144 7.96756 7.15877 7.98497 7.17663 8.00291C7.26809 8.09477 7.35962 8.18655 7.45122 8.27827C7.54539 8.3726 7.63931 8.46718 7.73317 8.56181C7.80589 8.63505 7.8788 8.70809 7.95176 8.78109C7.98647 8.81589 8.02112 8.85075 8.05569 8.88568C8.10402 8.93448 8.15261 8.98302 8.20126 9.03149C8.21527 9.04576 8.22928 9.06002 8.24372 9.07471C8.39492 9.22421 8.54846 9.31341 8.76388 9.32716C8.93022 9.32038 9.07035 9.25012 9.18749 9.13298C9.30355 8.97178 9.3449 8.8103 9.31599 8.61163C9.23552 8.34068 8.98496 8.15944 8.7563 8.01822C8.26662 7.70896 7.72307 7.27894 7.57956 6.69138C7.41437 5.79582 7.49375 4.82353 7.55208 3.92006C7.55405 3.88782 7.55602 3.85558 7.55806 3.82236C7.56182 3.76264 7.56599 3.70295 7.57065 3.64329C7.58355 3.43864 7.55626 3.30009 7.44433 3.12419C7.30719 2.98706 7.17691 2.93535 6.98611 2.92317C6.81977 2.92995 6.67963 3.00021 6.56249 3.11735Z" fill="#708499"/>
</svg>
