<svg width="16" height="16" viewBox="0 0 16 16" fill="none" xmlns="http://www.w3.org/2000/svg">
<g clip-path="url(#clip0_147_289)">
<path d="M4.83923 2.33962C4.91623 2.33957 4.99324 2.33952 5.07024 2.33945C5.25543 2.33932 5.44062 2.33934 5.62581 2.33943C5.77667 2.3395 5.92753 2.33951 6.07839 2.33948C6.11092 2.33947 6.11092 2.33947 6.14411 2.33946C6.18819 2.33945 6.23228 2.33944 6.27637 2.33943C6.68727 2.33934 7.09817 2.33944 7.50907 2.33961C7.85966 2.33975 8.21024 2.33973 8.56082 2.33958C8.97051 2.33942 9.38021 2.33935 9.7899 2.33945C9.8338 2.33946 9.8777 2.33947 9.9216 2.33948C9.95398 2.33948 9.95398 2.33948 9.98702 2.33949C10.1372 2.33952 10.2875 2.33947 10.4377 2.3394C10.6408 2.3393 10.844 2.33937 11.0472 2.33955C11.121 2.33959 11.1948 2.33958 11.2687 2.33951C11.9181 2.33896 12.5731 2.33873 13.2187 2.41592C13.2711 2.42204 13.2711 2.42204 13.3244 2.42828C14.1023 2.52409 14.9106 2.72811 15.4364 3.35428C15.6536 3.64757 15.7802 3.96315 15.8672 4.31436C15.8734 4.33883 15.8796 4.36329 15.886 4.3885C16.032 5.02274 16.0098 5.68097 16.0094 6.32742C16.0094 6.43564 16.0095 6.54386 16.0097 6.65208C16.01 6.90803 16.0101 7.16397 16.0099 7.41991C16.0097 7.68149 16.0101 7.94306 16.0107 8.20464C16.0113 8.43142 16.0115 8.65819 16.0114 8.88497C16.0113 9.01944 16.0114 9.15391 16.0118 9.28838C16.0153 10.4311 15.9977 11.6404 15.2812 12.5937C15.268 12.612 15.2548 12.6303 15.2412 12.6492C14.7229 13.3137 13.8175 13.4944 13.0312 13.5937C12.8072 13.6195 12.5836 13.6336 12.3582 13.6422C12.3243 13.6436 12.2904 13.6449 12.2554 13.6462C11.8846 13.6595 11.514 13.6606 11.1431 13.6602C11.0671 13.6602 10.9912 13.6603 10.9153 13.6604C10.7327 13.6605 10.55 13.6605 10.3674 13.6604C10.2187 13.6603 10.0699 13.6603 9.92119 13.6603C9.89982 13.6603 9.87845 13.6604 9.85644 13.6604C9.81299 13.6604 9.76955 13.6604 9.72611 13.6604C9.32117 13.6605 8.91623 13.6604 8.51129 13.6602C8.16558 13.6601 7.81988 13.6601 7.47417 13.6602C7.07033 13.6604 6.6665 13.6605 6.26267 13.6604C6.21943 13.6604 6.17619 13.6604 6.13294 13.6603C6.11168 13.6603 6.09042 13.6603 6.06851 13.6603C5.92033 13.6603 5.77214 13.6603 5.62396 13.6604C5.42373 13.6605 5.2235 13.6604 5.02326 13.6603C4.9504 13.6602 4.87753 13.6602 4.80466 13.6603C1.85544 13.6629 1.85544 13.6629 0.892089 12.7067C0.865824 12.6797 0.83956 12.6527 0.812499 12.6249C0.780836 12.5931 0.780836 12.5931 0.748534 12.5607C-0.0636304 11.6946 -0.0100877 10.3077 -0.00942562 9.20343C-0.00939179 9.09139 -0.00954537 8.97936 -0.00969408 8.86733C-0.0100388 8.6025 -0.0100559 8.33768 -0.00986574 8.07286C-0.00967722 7.80178 -0.0100617 7.53071 -0.0107274 7.25963C-0.011282 7.02495 -0.0114646 6.79027 -0.0113635 6.55559C-0.0113075 6.41628 -0.011383 6.27698 -0.0118236 6.13767C-0.0181512 3.94834 -0.018151 3.94834 0.676147 3.2272C1.44249 2.48999 2.58389 2.39535 3.59794 2.35758C3.63304 2.35627 3.66813 2.35495 3.7043 2.35359C4.08262 2.34043 4.46072 2.33926 4.83923 2.33962ZM6.21875 5.96866C6.18048 6.0452 6.18331 6.09516 6.1829 6.18075C6.18268 6.21234 6.18245 6.24393 6.18222 6.27647C6.18214 6.31126 6.18205 6.34605 6.18197 6.38189C6.18176 6.41843 6.18156 6.45497 6.18135 6.49261C6.18073 6.61398 6.18036 6.73535 6.18005 6.85672C6.17993 6.89853 6.1798 6.94033 6.17967 6.98213C6.17907 7.17861 6.17863 7.37508 6.17837 7.57155C6.17806 7.79816 6.17724 8.02476 6.17598 8.25136C6.17503 8.4266 6.17457 8.60184 6.17447 8.77709C6.17439 8.88171 6.17405 8.9863 6.17333 9.09092C6.17257 9.20777 6.1726 9.3246 6.17281 9.44146C6.17241 9.47593 6.17201 9.51041 6.1716 9.54592C6.17296 9.74611 6.19253 9.86871 6.3125 10.0312C6.44286 10.1412 6.54795 10.1845 6.71875 10.1874C6.91451 10.1395 7.08982 10.0531 7.26562 9.95694C7.31769 9.929 7.36978 9.90109 7.42187 9.8732C7.44951 9.85835 7.47714 9.84349 7.50561 9.82819C7.66448 9.74342 7.8245 9.66087 7.98437 9.57803C8.23597 9.44742 8.48719 9.31614 8.73783 9.18369C8.91977 9.08773 9.10248 8.9933 9.28533 8.89908C9.46137 8.80829 9.63699 8.71671 9.8125 8.62491C9.85378 8.60341 9.85378 8.60341 9.8959 8.58148C10.2737 8.38996 10.2737 8.38996 10.5312 8.06241C10.5429 7.88726 10.5378 7.77531 10.4375 7.62491C10.2853 7.48155 10.1174 7.39264 9.93164 7.29874C9.8669 7.26549 9.80216 7.23225 9.73743 7.19901C9.70363 7.18176 9.66984 7.16451 9.63502 7.14674C9.462 7.05823 9.28965 6.96842 9.11719 6.87882C9.0459 6.84186 8.97461 6.80491 8.90332 6.76798C8.84996 6.74033 8.84996 6.74033 8.79553 6.71213C8.75988 6.69366 8.72423 6.67519 8.6875 6.65616C8.54426 6.58195 8.40103 6.50774 8.25781 6.4335C8.22308 6.4155 8.18835 6.39751 8.15256 6.37896C7.88977 6.2427 7.62727 6.10588 7.36508 5.96846C7.31144 5.9404 7.25774 5.91244 7.20399 5.88459C7.14938 5.85629 7.09489 5.82775 7.04051 5.799C7.01316 5.78482 6.98582 5.77063 6.95764 5.75601C6.9333 5.74325 6.90896 5.73048 6.88389 5.71733C6.59916 5.59799 6.38699 5.73187 6.21875 5.96866Z" fill="#708499"/>
</g>
<defs>
<clipPath id="clip0_147_289">
<rect width="16" height="16" fill="white"/>
</clipPath>
</defs>
</svg>
